<svg width="816" height="681" viewBox="0 0 816 681" fill="none" xmlns="http://www.w3.org/2000/svg">
<path d="M125.504 406.157C84.3036 462.557 86.6703 533.657 93.0036 562.157C8.20361 595.757 -2.99639 654.157 2.0036 679.157C23.6036 643.557 80.6703 624.324 106.504 619.157C159.704 612.357 199.337 644.657 212.504 661.657C211.704 602.057 154.17 570.49 125.504 562.157C113.504 556.557 130.504 531.824 140.504 520.157C152.504 486.557 310.17 443.824 387.504 426.657C446.304 417.057 547.004 358.324 590.004 330.157C584.804 356.157 603.17 472.324 613.004 527.157C628.204 517.557 636.337 470.49 638.504 448.157C674.104 384.957 653.337 315.824 638.504 289.157L689.004 252.657C716.204 238.657 774.67 138.157 800.504 89.657C830.904 32.857 807.504 11.6569 792.004 8.15695C789.604 -17.0431 695.004 30.3236 648.004 57.1569C620.804 59.1569 484.004 126.99 419.004 160.657C408.204 161.857 303.17 234.157 252.004 270.157C195.604 305.757 144.17 375.657 125.504 406.157Z" stroke="black"/>
</svg>